<?xml version="1.0" encoding="UTF-8" standalone="no"?>
<!DOCTYPE svg PUBLIC "-//W3C//DTD SVG 1.1//EN"
 "http://www.w3.org/Graphics/SVG/1.1/DTD/svg11.dtd">
<!-- Generated by graphviz version 12.1.0 (20240811.2233)
 -->
<!-- Pages: 1 -->
<svg width="82pt" height="214pt"
 viewBox="0.00 0.00 81.54 213.76" xmlns="http://www.w3.org/2000/svg" xmlns:xlink="http://www.w3.org/1999/xlink">
<g id="graph0" class="graph" transform="scale(1 1) rotate(0) translate(4 209.76)">
<polygon fill="white" stroke="none" points="-4,4 -4,-209.76 77.54,-209.76 77.54,4 -4,4"/>
<!-- A -->
<g id="node1" class="node">
<title>A</title>
<polygon fill="lightgray" stroke="black" points="26.14,-205.76 3.39,-205.76 3.39,-187.26 26.14,-187.26 26.14,-205.76"/>
<text text-anchor="middle" x="14.77" y="-193.21" font-family="Times,serif" font-size="9.00">A</text>
</g>
<!-- A XOR B -->
<g id="node3" class="node">
<title>A XOR B</title>
<ellipse fill="lightblue" stroke="black" cx="36.77" cy="-36.77" rx="36.77" ry="36.77"/>
<text text-anchor="middle" x="36.77" y="-33.47" font-family="Times,serif" font-size="9.00">A XOR B</text>
</g>
<!-- A&#45;&gt;A XOR B -->
<g id="edge5" class="edge">
<title>A&#45;&gt;A XOR B</title>
<path fill="none" stroke="red" stroke-width="0.3" d="M12.33,-186.88C8.29,-171.29 1.17,-137.46 6.77,-109.54 8.8,-99.41 12.3,-88.93 16.2,-79.2"/>
<polygon fill="red" stroke="red" stroke-width="0.3" points="19.34,-80.77 20.02,-70.2 12.89,-78.04 19.34,-80.77"/>
</g>
<!-- 212 -->
<g id="node4" class="node">
<title>212</title>
<ellipse fill="white" stroke="black" cx="36.77" cy="-130.4" rx="20.86" ry="20.86"/>
<text text-anchor="middle" x="36.77" y="-127.1" font-family="Times,serif" font-size="9.00">212</text>
</g>
<!-- A&#45;&gt;212 -->
<g id="edge2" class="edge">
<title>A&#45;&gt;212</title>
<path fill="none" stroke="green" stroke-width="0.41" d="M17.74,-186.86C20.09,-180.01 23.51,-170.03 26.81,-160.41"/>
<polygon fill="green" stroke="green" stroke-width="0.41" points="30.02,-161.85 29.95,-151.26 23.4,-159.58 30.02,-161.85"/>
</g>
<!-- B -->
<g id="node2" class="node">
<title>B</title>
<polygon fill="lightgray" stroke="black" points="69.77,-205.76 47.77,-205.76 47.77,-187.26 69.77,-187.26 69.77,-205.76"/>
<text text-anchor="middle" x="58.77" y="-193.21" font-family="Times,serif" font-size="9.00">B</text>
</g>
<!-- B&#45;&gt;A XOR B -->
<g id="edge1" class="edge">
<title>B&#45;&gt;A XOR B</title>
<path fill="none" stroke="green" stroke-width="0.31" d="M61.21,-186.88C65.25,-171.29 72.37,-137.46 66.77,-109.54 64.74,-99.41 61.24,-88.93 57.34,-79.2"/>
<polygon fill="green" stroke="green" stroke-width="0.31" points="60.65,-78.04 53.52,-70.21 54.2,-80.78 60.65,-78.04"/>
</g>
<!-- B&#45;&gt;212 -->
<g id="edge4" class="edge">
<title>B&#45;&gt;212</title>
<path fill="none" stroke="red" stroke-width="0.47" d="M55.8,-186.86C53.48,-180.09 50.1,-170.24 46.83,-160.72"/>
<polygon fill="red" stroke="red" stroke-width="0.47" points="50.17,-159.66 43.61,-151.34 43.55,-161.93 50.17,-159.66"/>
</g>
<!-- 212&#45;&gt;A XOR B -->
<g id="edge3" class="edge">
<title>212&#45;&gt;A XOR B</title>
<path fill="none" stroke="green" stroke-width="0.8" d="M36.77,-109.06C36.77,-101.88 36.77,-93.47 36.77,-84.99"/>
<polygon fill="green" stroke="green" stroke-width="0.8" points="40.27,-85.12 36.77,-75.12 33.27,-85.12 40.27,-85.12"/>
</g>
</g>
</svg>
